<?xml version="1.0" encoding="UTF-8" standalone="no"?>
<!-- Created with Inkscape (http://www.inkscape.org/) -->

<svg
   width="100mm"
   height="50mm"
   viewBox="0 0 100 50"
   version="1.1"
   id="svg1"
   xml:space="preserve"
   sodipodi:docname="home.svg"
   inkscape:version="1.3.2 (091e20e, 2023-11-25, custom)"
   xmlns:inkscape="http://www.inkscape.org/namespaces/inkscape"
   xmlns:sodipodi="http://sodipodi.sourceforge.net/DTD/sodipodi-0.dtd"
   xmlns="http://www.w3.org/2000/svg"
   xmlns:svg="http://www.w3.org/2000/svg"><sodipodi:namedview
     id="namedview1"
     pagecolor="#ffffff"
     bordercolor="#000000"
     borderopacity="0.25"
     inkscape:showpageshadow="2"
     inkscape:pageopacity="0.0"
     inkscape:pagecheckerboard="0"
     inkscape:deskcolor="#d1d1d1"
     inkscape:document-units="mm"
     inkscape:zoom="1.5875"
     inkscape:cx="337.00787"
     inkscape:cy="232.75591"
     inkscape:window-width="1920"
     inkscape:window-height="1009"
     inkscape:window-x="1912"
     inkscape:window-y="-8"
     inkscape:window-maximized="1"
     inkscape:current-layer="layer1" /><defs
     id="defs1"><style
       id="style1">.cls-1{fill-rule:evenodd;}</style></defs><g
     inkscape:label="Layer 1"
     inkscape:groupmode="layer"
     id="layer1"><text
       xml:space="preserve"
       style="font-size:14.1111px;fill:#000000;stroke-width:0.264583"
       x="26.499994"
       y="27.66667"
       id="text1"><tspan
         sodipodi:role="line"
         id="tspan1"
         style="font-style:normal;font-variant:normal;font-weight:normal;font-stretch:normal;font-size:14.1111px;font-family:Georgia;-inkscape-font-specification:Georgia;stroke-width:0.264583"
         x="26.499994"
         y="27.66667">Concerto</tspan></text><text
       xml:space="preserve"
       style="font-style:normal;font-variant:normal;font-weight:normal;font-stretch:normal;font-size:4.23333px;font-family:Georgia;-inkscape-font-specification:Georgia;fill:#000000;stroke-width:0.264583"
       x="41.999996"
       y="32.999996"
       id="text2"><tspan
         sodipodi:role="line"
         id="tspan2"
         style="font-style:normal;font-variant:normal;font-weight:bold;font-stretch:normal;font-size:4.23333px;font-family:sans-serif;-inkscape-font-specification:'sans-serif Bold';stroke-width:0.264583"
         x="41.999996"
         y="32.999996">Collaborative Music</tspan></text><path
       class="cls-1"
       d="m 16.746656,20.563806 q 0.98425,-1.116542 2.034646,-2.116667 a 12.094104,12.094104 0 0 1 -0.579438,-3.175 c -0.06085,-1.915583 0.232833,-3.950229 1.322917,-5.5562497 0.304271,-0.481542 0.833437,-1.285875 1.407583,-1.219729 0.484188,0.0635 0.748771,0.748771 0.939271,1.143 1.30175,2.6458327 1.568979,5.4345417 0.06615,8.4481457 a 12.170833,12.170833 0 0 1 -2.074334,2.8575 l 0.629709,3.20675 a 2.3124583,2.3124583 0 0 1 0.230187,-0.03704 3.7570833,3.7570833 0 0 1 2.264834,0.373063 c 1.481666,0.79375 2.402416,2.796645 2.25425,4.452937 -0.132292,1.455208 -0.79375,2.460625 -1.891771,3.341688 a 6.3288333,6.3288333 0 0 1 -1.121834,0.735541 l 0.759355,3.868209 a 7.4268542,7.4268542 0 0 1 0.03175,0.989541 c -0.0926,2.039938 -1.680105,3.217334 -3.645959,3.127375 -1.513416,-0.09525 -3.087687,-1.296458 -3.095625,-2.815166 -0.01587,-2.944813 3.96875,-2.804584 3.677709,-0.111125 -0.08467,0.79375 -0.664105,1.494895 -1.907646,1.539875 1.002771,1.661583 4.103687,0.473604 4.315354,-1.703917 a 4.6355,4.6355 0 0 0 -0.182563,-1.651 L 21.607056,33.274389 A 4.683125,4.683125 0 0 1 20.794785,33.45166 6.2732708,6.2732708 0 0 1 15.992597,31.954118 6.8791667,6.8791667 0 0 1 13.875931,25.51416 c 0.396875,-2.018771 1.558395,-3.455458 2.870729,-4.950354 z m 2.595562,-2.521479 c -0.547687,-1.992313 -0.465666,-4.519084 0.944563,-6.170084 1.410229,-1.651 2.965979,0.592667 0.912812,3.878792 a 12.911667,12.911667 0 0 1 -1.852083,2.291292 z m 0,3.439583 c -0.177271,0.177271 -0.359833,0.354542 -0.545041,0.529167 -1.058334,1.018645 -2.116667,1.989666 -2.910417,3.439583 a 5.4636458,5.4636458 0 0 0 -0.396875,4.558771 c 0.635,1.981729 3.704167,3.230562 5.992812,2.629958 l -1.198562,-6.249458 a 2.5982083,2.5982083 0 0 0 -1.875896,2.116666 2.301875,2.301875 0 0 0 0.814917,2.066396 4.429125,4.429125 0 0 0 0.478896,0.359834 c 0.328083,0.216958 0.166687,0.373062 -0.14023,0.280458 -1.023937,-0.343958 -1.63777,-0.910167 -1.965854,-1.632479 -0.971021,-2.137834 0.219604,-4.519084 2.291292,-5.2705 l -0.545042,-2.831042 z m 2.770188,10.940521 -1.201209,-6.135688 a 2.38125,2.38125 0 0 1 1.198563,0.264584 3.175,3.175 0 0 1 1.751542,2.17752 c 0.3175,1.47373 -0.449792,3.100917 -1.717146,3.688292 l -0.03175,0.01323 z"
       id="path1"
       style="stroke-width:0.264583" /></g></svg>
